<?xml version="1.0" encoding="utf-8"?>
<svg xmlns="http://www.w3.org/2000/svg" viewBox="0 0 500 500" xmlns:bx="https://boxy-svg.com" width="500px" height="500px"><defs><linearGradient id="gradient-4"><stop offset="0" style="stop-color: rgb(0, 116, 43);"/><stop offset="0.991" style="stop-color: rgb(0, 255, 110);"/></linearGradient><linearGradient id="gradient-5"><stop offset="0" style="stop-color: rgb(255, 53, 0);"/><stop offset="1" style="stop-color: rgb(255, 0, 0);"/></linearGradient><linearGradient id="gradient-6"><stop offset="0" style="stop-color: rgb(0, 73, 156);"/><stop offset="1" style="stop-color: rgb(16, 0, 142);"/></linearGradient><linearGradient id="gradient-7"><stop offset="0" style="stop-color: rgb(0, 161, 255);"/><stop offset="1" style="stop-color: rgb(0, 79, 255);"/></linearGradient><linearGradient id="gradient-7-0" href="#gradient-7" gradientTransform="matrix(0.402598, 0.767081, -0.934324, 0.448661, 0.314935, 0.090062)"/><linearGradient id="gradient-1" href="#gradient-7" gradientTransform="matrix(0.402598, 0.767081, -0.934324, 0.448661, 0.314935, 0.090062)"/><linearGradient id="gradient-6-0" href="#gradient-6" gradientTransform="matrix(-0.633427, 0.583366, -0.677442, -0.735576, 0.481886, 0.865406)" x1="-0.792" y1="0.217" x2="0.208" y2="0.217"/><linearGradient id="gradient-5-0" href="#gradient-5" gradientTransform="matrix(0.752818, -0.679462, 0.670013, 0.74235, 0.120218, 0.754694)"/><linearGradient id="gradient-4-0" href="#gradient-4" gradientTransform="matrix(0.696615, 0.279367, -0.341675, 0.933832, 0.341324, 0.515697)" x1="-0.107" y1="0.111" x2="0.893" y2="0.111"/><linearGradient id="gradient-5-1" href="#gradient-5" gradientTransform="matrix(0.752818, -0.679462, 0.670013, 0.74235, 0.120218, 0.754694)"/><linearGradient id="gradient-4-1" href="#gradient-4" gradientTransform="matrix(0.696615, 0.279367, -0.341675, 0.933832, 0.341324, 0.515697)" x1="-0.107" y1="0.111" x2="0.893" y2="0.111"/><linearGradient id="gradient-6-1" href="#gradient-6" gradientTransform="matrix(-0.633427, 0.583366, -0.677442, -0.735576, 0.481886, 0.865406)" x1="-0.792" y1="0.217" x2="0.208" y2="0.217"/><linearGradient id="gradient-7-1" href="#gradient-7" gradientTransform="matrix(0.402598, 0.767081, -0.934324, 0.448661, 0.314935, 0.090062)"/><linearGradient id="gradient-0" href="#gradient-7" gradientTransform="matrix(0.402598, 0.767081, -0.934324, 0.448661, 0.314935, 0.090062)"/><filter id="motion-blur-filter-1" color-interpolation-filters="sRGB" x="-50%" y="-50%" width="200%" height="200%"><feGaussianBlur stdDeviation="0 50" edgeMode="none"/></filter><filter id="motion-blur-filter-0" color-interpolation-filters="sRGB" x="-50%" y="-50%" width="200%" height="200%"><feGaussianBlur stdDeviation="50 0" edgeMode="none"/></filter></defs><rect x="-3.137" y="-2.056" width="508.155" height="506.273" style="fill: rgb(16, 16, 16);"/><g transform="matrix(1, 0, 0, 1, -22.43087, 2.403015)" style="filter: url(&quot;#motion-blur-filter-1&quot;) url(&quot;#motion-blur-filter-0&quot;);"><rect style="fill: url(&quot;#gradient-5-1&quot;);" x="247.804" y="120.452" width="168.758" height="168.758" rx="25" ry="25" transform="matrix(0.983992, -0.17821, 0.17821, 0.983992, -28.676019, 44.283815)"/><path d="M 166.477 95.066 Q 177.995 73.572 189.513 95.066 L 255.079 217.416 Q 266.597 238.91 243.56 238.91 L 112.43 238.91 Q 89.393 238.91 100.911 217.416 Z" style="fill: url(&quot;#gradient-4-1&quot;);" transform="matrix(0.973206, 0.229934, -0.229934, 0.973206, 75.724085, -29.512033)"/><path d="M 185.314 217.379 Q 200.439 211.114 215.564 217.379 L 254.066 233.327 Q 269.191 239.592 275.456 254.717 L 291.404 293.219 Q 297.669 308.344 291.404 323.469 L 275.456 361.971 Q 269.191 377.096 254.066 383.361 L 215.564 399.309 Q 200.439 405.574 185.314 399.309 L 146.812 383.361 Q 131.687 377.096 125.422 361.971 L 109.474 323.469 Q 103.209 308.344 109.474 293.219 L 125.422 254.717 Q 131.687 239.592 146.812 233.327 Z" style="fill: url(&quot;#gradient-6-1&quot;);"/><path style="fill-rule: nonzero; fill: url(&quot;#gradient-7-1&quot;);" transform="matrix(0.886352, 0, 0, 0.92664, -534.694275, -310.792786)" d="M 977.399 571 L 1000.601 571 L 1013.259 597.708 C 1019.0814172517531 599.4242995836871 1024.7052451151335 601.7536778904246 1030.036 604.657 L 1057.872 594.722 L 1074.278 611.128 L 1064.343 638.964 C 1067.2463221040489 644.2947548755897 1069.5757004175723 649.9185827591248 1071.292 655.741 L 1098 668.399 L 1098 691.601 L 1071.292 704.259 C 1069.5757004175723 710.0814172408752 1067.2463221040489 715.7052451244103 1064.343 721.036 L 1074.278 748.872 L 1057.872 765.278 L 1030.036 755.343 C 1024.7052451151335 758.2463221095754 1019.0814172517531 760.5757004163129 1013.259 762.292 L 1000.601 789 L 977.399 789 L 964.741 762.292 C 958.9185827482469 760.5757004163129 953.2947548848665 758.2463221095754 947.964 755.343 L 920.128 765.278 L 903.722 748.872 L 913.657 721.036 C 910.7536778959512 715.7052451244103 908.4242995824276 710.0814172408752 906.708 704.259 L 880 691.601 L 880 668.399 L 906.708 655.741 C 908.4242995824276 649.9185827591248 910.7536778959512 644.2947548755897 913.657 638.964 L 903.722 611.128 L 920.128 594.722 L 947.964 604.657 C 953.2947548848665 601.7536778904246 958.9185827482469 599.4242995836871 964.741 597.708 L 977.399 571 Z"/><path style="fill-rule: nonzero; fill: url(&quot;#gradient-0&quot;);" transform="matrix(0.886352, 0, 0, 0.92664, -534.694275, -310.792786)" d="M 989 680 C 989 680 989 680 989 680 C 989 680 989 680 989 680"/></g><g transform="matrix(1, 0, 0, 1, -22.43087, 2.403015)"><rect style="fill: url(&quot;#gradient-5-0&quot;);" x="247.804" y="120.452" width="168.758" height="168.758" rx="25" ry="25" transform="matrix(0.983992, -0.17821, 0.17821, 0.983992, -28.676019, 44.283815)"/><path d="M 166.477 95.066 Q 177.995 73.572 189.513 95.066 L 255.079 217.416 Q 266.597 238.91 243.56 238.91 L 112.43 238.91 Q 89.393 238.91 100.911 217.416 Z" style="fill: url(&quot;#gradient-4-0&quot;);" transform="matrix(0.973206, 0.229934, -0.229934, 0.973206, 75.724085, -29.512033)"/><path d="M 185.314 217.379 Q 200.439 211.114 215.564 217.379 L 254.066 233.327 Q 269.191 239.592 275.456 254.717 L 291.404 293.219 Q 297.669 308.344 291.404 323.469 L 275.456 361.971 Q 269.191 377.096 254.066 383.361 L 215.564 399.309 Q 200.439 405.574 185.314 399.309 L 146.812 383.361 Q 131.687 377.096 125.422 361.971 L 109.474 323.469 Q 103.209 308.344 109.474 293.219 L 125.422 254.717 Q 131.687 239.592 146.812 233.327 Z" style="fill: url(&quot;#gradient-6-0&quot;);"/><path style="fill: url(&quot;#gradient-7-0&quot;); fill-rule: nonzero;" transform="matrix(0.886352, 0, 0, 0.92664, -534.694275, -310.792786)" d="M 977.399 571 L 1000.601 571 L 1013.259 597.708 C 1019.0814172517531 599.4242995836871 1024.7052451151335 601.7536778904246 1030.036 604.657 L 1057.872 594.722 L 1074.278 611.128 L 1064.343 638.964 C 1067.2463221040489 644.2947548755897 1069.5757004175723 649.9185827591248 1071.292 655.741 L 1098 668.399 L 1098 691.601 L 1071.292 704.259 C 1069.5757004175723 710.0814172408752 1067.2463221040489 715.7052451244103 1064.343 721.036 L 1074.278 748.872 L 1057.872 765.278 L 1030.036 755.343 C 1024.7052451151335 758.2463221095754 1019.0814172517531 760.5757004163129 1013.259 762.292 L 1000.601 789 L 977.399 789 L 964.741 762.292 C 958.9185827482469 760.5757004163129 953.2947548848665 758.2463221095754 947.964 755.343 L 920.128 765.278 L 903.722 748.872 L 913.657 721.036 C 910.7536778959512 715.7052451244103 908.4242995824276 710.0814172408752 906.708 704.259 L 880 691.601 L 880 668.399 L 906.708 655.741 C 908.4242995824276 649.9185827591248 910.7536778959512 644.2947548755897 913.657 638.964 L 903.722 611.128 L 920.128 594.722 L 947.964 604.657 C 953.2947548848665 601.7536778904246 958.9185827482469 599.4242995836871 964.741 597.708 L 977.399 571 Z"/><path style="fill: url(&quot;#gradient-1&quot;); fill-rule: nonzero;" transform="matrix(0.886352, 0, 0, 0.92664, -534.694275, -310.792786)" d="M 989 680 C 989 680 989 680 989 680 C 989 680 989 680 989 680"/></g></svg>